<svg width="27" height="26" viewBox="0 0 27 26" fill="none" xmlns="http://www.w3.org/2000/svg">
<path d="M18.7332 14.9266L14.0567 19.763C13.9946 19.8271 13.9209 19.878 13.8398 19.9127C13.7587 19.9473 13.6718 19.9652 13.584 19.9651H5.56711C5.21274 19.9651 4.87288 19.8195 4.62231 19.5604C4.37173 19.3012 4.23096 18.9497 4.23096 18.5833V3.38308C4.23096 3.01659 4.37173 2.66512 4.62231 2.40597C4.87288 2.14683 5.21274 2.00124 5.56711 2.00124H17.5925C17.9469 2.00124 18.2867 2.14683 18.5373 2.40597C18.7879 2.66512 18.9286 3.01659 18.9286 3.38308V14.4378C18.9287 14.5285 18.9115 14.6184 18.878 14.7023C18.8444 14.7861 18.7953 14.8624 18.7332 14.9266ZM14.2521 17.6065L16.648 15.1287H14.2521V17.6065ZM17.5925 3.38308H5.56711V18.5833H12.916V14.4378C12.916 14.2545 12.9863 14.0788 13.1116 13.9492C13.2369 13.8196 13.4068 13.7468 13.584 13.7468H17.5925V3.38308Z" fill="#003D53"/>
<path d="M22.5926 18.7867L17.9161 23.6231C17.854 23.6872 17.7803 23.7381 17.6992 23.7728C17.6181 23.8075 17.5312 23.8253 17.4434 23.8252H9.42649C9.07212 23.8252 8.73226 23.6796 8.48168 23.4205C8.2311 23.1613 8.09033 22.8098 8.09033 22.4434L8.10075 19.1592C9.43692 19.1215 9.05521 19.17 9.4368 19.1592L18.212 7.28088L18.2121 5.86135H21.4519C21.8062 5.86135 22.1461 6.00693 22.3967 6.26608C22.6473 6.52522 22.788 6.8767 22.788 7.24318V18.2979C22.7881 18.3886 22.7709 18.4785 22.7373 18.5624C22.7038 18.6462 22.6546 18.7225 22.5926 18.7867ZM18.1115 21.4666L20.5074 18.9888H18.1115V21.4666ZM21.4519 7.24318H19.6703L18.212 7.28088L9.4368 19.1592L9.42649 22.4434H16.7753V18.2979C16.7753 18.1146 16.8457 17.9389 16.971 17.8093C17.0963 17.6797 17.2662 17.6069 17.4434 17.6069H21.4519V7.24318Z" fill="#003D53"/>
<path d="M11.5793 6.15845V9.05345V11.9484" stroke="#003D53" stroke-width="2.28095" stroke-miterlimit="2.85545" stroke-linecap="round" stroke-linejoin="round"/>
<path d="M14.4739 9.05347H11.5789L8.68388 9.05347" stroke="#003D53" stroke-width="2.28095" stroke-miterlimit="2.85545" stroke-linecap="round" stroke-linejoin="round"/>
</svg>
