<svg width="26" height="26" viewBox="0 0 26 26" fill="none" xmlns="http://www.w3.org/2000/svg">
<path d="M21.1945 17.5736L15.6676 23.2895C15.5942 23.3653 15.5071 23.4254 15.4113 23.4664C15.3154 23.5074 15.2127 23.5284 15.109 23.5283H5.63429C5.21548 23.5283 4.81383 23.3563 4.51769 23.05C4.22155 22.7437 4.05518 22.3283 4.05518 21.8952V3.93108C4.05518 3.49796 4.22155 3.08257 4.51769 2.7763C4.81383 2.47004 5.21548 2.29798 5.63429 2.29798H19.8463C20.2651 2.29798 20.6668 2.47004 20.9629 2.7763C21.2591 3.08257 21.4255 3.49796 21.4255 3.93108V16.9959C21.4255 17.1032 21.4052 17.2094 21.3656 17.3085C21.3259 17.4076 21.2678 17.4977 21.1945 17.5736ZM15.8985 20.7408L18.7301 17.8125H15.8985V20.7408ZM19.8463 3.93108H5.63429V21.8952H14.3194V16.9959C14.3194 16.7793 14.4026 16.5717 14.5507 16.4185C14.6988 16.2654 14.8996 16.1794 15.109 16.1794H19.8463V3.93108Z" fill="#003D53"/>
<path fill-rule="evenodd" clip-rule="evenodd" d="M16.7925 10.5386L17.9215 9.40957C18.2641 9.06695 18.4358 8.89533 18.5275 8.7105C18.6135 8.53697 18.6583 8.34592 18.6583 8.15226C18.6583 7.95859 18.6135 7.76754 18.5275 7.59401C18.4358 7.40919 18.2641 7.23757 17.9215 6.89495C17.5789 6.55234 17.4073 6.38071 17.2225 6.28893C17.0489 6.20294 16.8579 6.1582 16.6642 6.1582C16.4705 6.1582 16.2795 6.20294 16.106 6.28893C15.9211 6.38071 15.7495 6.55234 15.4069 6.89495L14.2634 8.03847C14.8717 9.07991 15.7441 9.94234 16.7925 10.5386ZM13.3493 8.95253L9.03047 13.2714C8.76267 13.5392 8.62939 13.6725 8.54138 13.8372C8.45337 14.0006 8.41628 14.1861 8.34273 14.557L7.95548 16.4913C7.91398 16.7001 7.89261 16.8044 7.95233 16.8641C8.01205 16.9239 8.11578 16.9025 8.32512 16.861L10.2595 16.4737C10.6304 16.4002 10.8159 16.3631 10.9799 16.2751C11.1434 16.1871 11.2773 16.0538 11.5445 15.7866L15.8759 11.4552C14.8588 10.8184 13.9956 9.96387 13.3487 8.95316" fill="#003D53"/>
</svg>
