<svg width="499" height="469" viewBox="0 0 499 469" fill="none" xmlns="http://www.w3.org/2000/svg">
<path d="M63.0001 178.071C70.1425 180.204 74.9089 184.193 77.2991 190.039L86.0777 186.788C86.4095 186.728 86.6483 186.72 86.7941 186.764L87.0127 186.829C87.4014 186.945 87.6769 187.186 87.8393 187.552C88.0503 187.933 88.1021 188.318 87.9946 188.71L84.1478 202.719C83.9061 203.599 83.4794 204.292 82.8675 204.797C82.3043 205.316 81.7947 205.64 81.3389 205.769L78.4101 206.958C78.1397 208.517 77.7695 210.152 77.2995 211.864C75.0304 220.128 71.4375 226.224 66.5211 230.152C61.6181 234.032 55.401 234.847 47.8699 232.598L39.2698 230.029C31.7387 227.78 26.8778 223.657 24.687 217.659C22.5096 211.612 22.5555 204.457 24.8247 196.193C27.0938 187.929 30.6799 181.857 35.583 177.978C40.4994 174.05 46.6746 173.195 54.1086 175.415L63.0001 178.071ZM54.8383 213.251C56.8304 213.846 58.5422 213.643 59.9736 212.642C61.4185 211.592 62.4565 209.918 63.0876 207.62C63.7186 205.321 63.681 203.353 62.9746 201.713C62.233 200.01 60.8662 198.861 58.8741 198.266L47.3588 194.827C45.3667 194.233 43.6482 194.46 42.2033 195.51C40.7232 196.497 39.6677 198.139 39.0366 200.437C38.4055 202.735 38.4365 204.729 39.1295 206.417C39.8359 208.056 41.1851 209.174 43.1772 209.769L54.8383 213.251Z" fill="#00688D"/>
<path d="M106.1 149.584C101.095 156.478 95.6653 160.81 89.8108 162.578C83.9861 164.306 77.9893 162.734 71.8205 157.864L49.0157 139.859C48.5779 139.513 48.319 139.051 48.2389 138.471C48.1588 137.891 48.2826 137.376 48.6103 136.924L57.9493 124.06C58.277 123.609 58.7192 123.344 59.2759 123.267C59.8327 123.191 60.3299 123.325 60.7677 123.671L84.5277 142.43C86.1594 143.718 87.8153 144.154 89.4952 143.737C91.2048 143.279 92.7597 142.086 94.1599 140.158C95.56 138.229 96.2244 136.365 96.1531 134.566C96.1117 132.726 95.2751 131.161 93.6433 129.873L69.8833 111.114C69.4455 110.768 69.1866 110.306 69.1065 109.726C69.0265 109.146 69.1503 108.631 69.4779 108.179L78.817 95.3147C79.1447 94.8633 79.5869 94.5992 80.1436 94.5223C80.7003 94.4454 81.1976 94.5797 81.6353 94.9254L104.44 112.93C110.609 117.801 113.671 123.414 113.628 129.771C113.614 136.086 111.104 142.69 106.1 149.584Z" fill="#00688D"/>
<path d="M155.152 82.3884L166.723 74.9288C167.192 74.6266 167.701 74.54 168.248 74.6692C168.796 74.7984 169.212 75.1029 169.497 75.5827L175.353 85.4628C175.638 85.9426 175.713 86.4669 175.579 87.0357C175.445 87.6044 175.143 88.0399 174.674 88.3421L134.143 114.471C133.674 114.773 133.166 114.86 132.618 114.731C132.07 114.602 131.654 114.297 131.37 113.817L125.513 103.937C125.229 103.457 125.154 102.933 125.288 102.364C125.422 101.796 125.723 101.36 126.192 101.058L137.891 93.5159L126.644 74.5409L114.945 82.0829C114.476 82.3851 113.968 82.4716 113.42 82.3425C112.872 82.2133 112.456 81.9088 112.171 81.429L106.315 71.5489C106.031 71.0691 105.955 70.5448 106.089 69.976C106.224 69.4073 106.525 68.9718 106.994 68.6695L147.525 42.5405C147.994 42.2382 148.502 42.1517 149.05 42.2809C149.598 42.41 150.014 42.7145 150.298 43.1944L156.155 53.0744C156.439 53.5543 156.514 54.0786 156.38 54.6473C156.246 55.2161 155.945 55.6516 155.476 55.9538L143.905 63.4134L155.152 82.3884Z" fill="#00688D"/>
<path d="M247.237 67.1178C247.49 67.3786 247.647 67.6836 247.71 68.033C247.79 68.4823 247.688 68.9155 247.402 69.3327C247.157 69.6904 246.81 69.9128 246.362 70L227.1 73.7501C225.955 73.973 224.988 73.7481 224.198 73.0754L208.325 59.507L211.059 74.7809C211.158 75.33 211.043 75.8429 210.717 76.3198C210.39 76.7966 209.953 77.0883 209.405 77.1949L194.025 80.1892C193.478 80.2958 192.969 80.1882 192.499 79.8664C192.03 79.5446 191.746 79.1091 191.648 78.5601L182.989 30.1927C182.891 29.6436 183.005 29.1307 183.332 28.6538C183.659 28.177 184.096 27.8853 184.643 27.7787L200.023 24.7844C200.571 24.6779 201.08 24.7855 201.549 25.1073C202.019 25.4291 202.303 25.8645 202.401 26.4135L204.921 40.4895L214.063 23.3683C214.658 22.3744 215.503 21.7708 216.598 21.5576L234.591 18.0546C235.039 17.9674 235.444 18.0695 235.805 18.3607C236.207 18.5924 236.448 18.9328 236.529 19.3821C236.6 19.7814 236.538 20.155 236.343 20.5029L222.522 45.5858L247.237 67.1178Z" fill="#00688D"/>
<path d="M318.417 28.5697C318.964 28.6763 319.401 28.968 319.728 29.4448C320.055 29.9217 320.169 30.4346 320.071 30.9837L318.033 42.3642C317.935 42.9133 317.651 43.3487 317.181 43.6705C316.712 43.9923 316.203 44.0999 315.656 43.9933L286.314 38.281L285.456 43.0728L309.945 47.8404C310.492 47.947 310.93 48.2387 311.256 48.7155C311.583 49.1923 311.697 49.7053 311.599 50.2544L309.575 61.5601C309.477 62.1091 309.193 62.5445 308.723 62.8663C308.254 63.1881 307.745 63.2957 307.197 63.1891L282.709 58.4216L280.055 73.2463C279.957 73.7953 279.673 74.2308 279.203 74.5526C278.733 74.8744 278.225 74.982 277.677 74.8754L261.551 71.7358C261.003 71.6292 260.566 71.3375 260.239 70.8606C259.913 70.3838 259.798 69.8708 259.897 69.3218L268.555 20.9544C268.653 20.4053 268.937 19.9699 269.407 19.6481C269.876 19.3263 270.385 19.2187 270.933 19.3253L318.417 28.5697Z" fill="#00688D"/>
<path d="M380.454 98.3911C376.498 105.065 371.403 108.593 365.168 108.975C358.976 109.384 352.279 107.267 345.076 102.624C337.873 97.9804 333.042 92.6653 330.582 86.6785C328.165 80.7192 328.961 74.3589 332.968 67.5977L337.545 59.8769C340.182 55.4276 343.39 52.401 347.168 50.7973C351.015 49.1773 355.142 48.8234 359.549 49.7355C363.957 50.6476 368.441 52.5735 373.001 55.5134C377.561 58.4533 381.196 61.7613 383.906 65.4377C386.659 69.1415 388.213 73.1278 388.569 77.3967C388.925 81.6655 387.798 86.0028 385.186 90.4085L380.454 98.3911ZM349.415 80.0993C348.355 81.8877 348.116 83.6327 348.698 85.3342C349.322 87.0632 350.636 88.5733 352.639 89.8647C354.642 91.156 356.503 91.6928 358.223 91.4749C360.011 91.241 361.435 90.2298 362.495 88.4413L368.623 78.1032C369.683 76.3148 369.901 74.5561 369.277 72.8271C368.721 71.082 367.441 69.5638 365.438 68.2724C363.435 66.9811 361.552 66.4306 359.79 66.6209C358.07 66.8388 356.681 67.8419 355.62 69.6303L349.415 80.0993Z" fill="#00688D"/>
<path d="M413.128 172.144C413.028 172.352 412.879 172.535 412.68 172.692C412.322 172.975 411.899 173.082 411.412 173.015C410.995 172.957 410.652 172.744 410.384 172.375L400.24 158.402C399.823 157.828 399.575 157.184 399.496 156.472C399.447 155.8 399.567 155.189 399.856 154.638L407.744 139.889L403.991 134.719L392.29 143.957C391.852 144.303 391.355 144.437 390.798 144.36C390.241 144.283 389.799 144.019 389.471 143.568L379.82 130.272C379.492 129.821 379.368 129.305 379.448 128.726C379.528 128.146 379.787 127.683 380.225 127.338L418.79 96.8896C419.228 96.544 419.725 96.4096 420.282 96.4865C420.839 96.5634 421.281 96.8275 421.608 97.2789L438.991 121.223C441.672 124.916 443.433 128.593 444.275 132.254C445.146 135.955 445.024 139.409 443.907 142.614C442.791 145.82 440.76 148.585 437.815 150.911C432.402 155.184 426.918 156.125 421.363 153.733L413.128 172.144ZM420.62 133.693C421.276 134.596 422.061 135.074 422.975 135.126C423.93 135.147 424.845 134.812 425.721 134.121C426.596 133.43 427.174 132.586 427.453 131.591C427.802 130.606 427.634 129.641 426.948 128.697L421.363 121.003L415.035 125.999L420.62 133.693Z" fill="#00688D"/>
<path d="M473.912 205.86C475.425 206.202 476.37 207.057 476.746 208.427L480.431 221.849C480.579 222.387 480.512 222.91 480.231 223.417C479.95 223.924 479.542 224.258 479.007 224.417L431.926 238.477C431.391 238.637 430.876 238.579 430.38 238.304C429.884 238.029 429.562 237.623 429.414 237.085L425.769 223.809C425.621 223.271 425.688 222.748 425.969 222.241C426.25 221.734 426.658 221.4 427.193 221.241L449.786 214.494L437.821 212.273C437.441 212.228 436.958 212.002 436.373 211.595C435.788 211.188 435.381 210.568 435.153 209.737L433.783 204.749C433.555 203.918 433.586 203.168 433.875 202.5C434.165 201.831 434.46 201.373 434.76 201.125L443.784 192.636L421.191 199.383C420.657 199.543 420.141 199.485 419.645 199.21C419.149 198.935 418.827 198.528 418.679 197.991L415.034 184.715C414.886 184.177 414.953 183.654 415.234 183.147C415.516 182.64 415.924 182.306 416.458 182.147L463.54 168.086C464.074 167.927 464.589 167.985 465.085 168.26C465.582 168.535 465.903 168.941 466.051 169.479L469.737 182.902C470.113 184.271 469.746 185.518 468.635 186.643L453.782 201.475L473.912 205.86Z" fill="#00688D"/>
<rect x="164.269" y="204.348" width="127.092" height="156.689" rx="4.35247" transform="rotate(-14.1589 164.269 204.348)" fill="#92B8C5" stroke="#003D53" stroke-width="1.74099" stroke-linejoin="round"/>
<rect x="190.325" y="178.633" width="127.092" height="156.689" rx="4.35247" transform="rotate(-8.34546 190.325 178.633)" fill="#92B8C5" stroke="#003D53" stroke-width="1.74099" stroke-linejoin="round"/>
<rect x="211.032" y="212.655" width="74.8625" height="5.22297" transform="rotate(-8.52251 211.032 212.655)" fill="#003D53" stroke="#92B8C5" stroke-width="1.74099"/>
<rect x="213.871" y="231.594" width="60.9346" height="5.22297" transform="rotate(-8.52251 213.871 231.594)" fill="#003D53" stroke="#92B8C5" stroke-width="1.74099"/>
<rect x="216.967" y="252.256" width="31.3378" height="5.22297" transform="rotate(-8.52251 216.967 252.256)" fill="#003D53" stroke="#92B8C5" stroke-width="1.74099"/>
<rect x="296.168" y="240.387" width="17.4099" height="5.22297" transform="rotate(-8.52251 296.168 240.387)" fill="#003D53" stroke="#92B8C5" stroke-width="1.74099"/>
<rect x="254.846" y="246.58" width="33.0788" height="5.22297" transform="rotate(-8.52251 254.846 246.58)" fill="#003D53" stroke="#92B8C5" stroke-width="1.74099"/>
<path d="M66 301.5L62.5 279.374L60.8013 254.394M60.8013 254.394L34.7882 279.374M60.8013 254.394L92.3907 272.587" stroke="#00688D" stroke-width="18.2606"/>
<path d="M454.199 246.013C461.948 354.977 380.325 449.012 271.889 456.047C163.452 463.082 69.2654 380.453 61.5163 271.489" stroke="#00688D" stroke-width="18.3299"/>
</svg>
