<svg width="499" height="470" viewBox="0 0 499 470" fill="none" xmlns="http://www.w3.org/2000/svg">
<path d="M63.0001 178.856C70.1425 180.989 74.9089 184.979 77.2991 190.824L86.0777 187.573C86.4095 187.514 86.6483 187.506 86.7941 187.549L87.0127 187.614C87.4014 187.73 87.6769 187.971 87.8393 188.337C88.0503 188.718 88.1021 189.104 87.9946 189.495L84.1478 203.504C83.9061 204.384 83.4794 205.077 82.8675 205.582C82.3043 206.102 81.7947 206.426 81.3389 206.554L78.4101 207.743C78.1397 209.302 77.7695 210.938 77.2995 212.649C75.0304 220.913 71.4375 227.009 66.5211 230.937C61.6181 234.817 55.401 235.632 47.8699 233.383L39.2698 230.815C31.7387 228.566 26.8778 224.442 24.687 218.444C22.5096 212.397 22.5555 205.242 24.8247 196.978C27.0938 188.714 30.6799 182.643 35.583 178.763C40.4994 174.835 46.6746 173.981 54.1086 176.201L63.0001 178.856ZM54.8383 214.036C56.8304 214.631 58.5422 214.428 59.9736 213.427C61.4185 212.377 62.4565 210.703 63.0876 208.405C63.7186 206.107 63.681 204.138 62.9746 202.498C62.233 200.795 60.8662 199.647 58.8741 199.052L47.3588 195.613C45.3667 195.018 43.6482 195.245 42.2033 196.295C40.7232 197.282 39.6677 198.924 39.0366 201.222C38.4055 203.521 38.4365 205.514 39.1295 207.202C39.8359 208.842 41.1851 209.959 43.1772 210.554L54.8383 214.036Z" fill="#00688D"/>
<path d="M106.1 150.37C101.095 157.264 95.6653 161.595 89.8108 163.364C83.9861 165.091 77.9893 163.52 71.8205 158.65L49.0157 140.645C48.5779 140.299 48.319 139.836 48.2389 139.257C48.1588 138.677 48.2826 138.161 48.6103 137.71L57.9493 124.845C58.277 124.394 58.7192 124.13 59.2759 124.053C59.8327 123.976 60.3299 124.11 60.7677 124.456L84.5277 143.215C86.1594 144.504 87.8153 144.939 89.4952 144.523C91.2048 144.065 92.7597 142.872 94.1599 140.943C95.56 139.015 96.2244 137.151 96.1531 135.351C96.1117 133.511 95.2751 131.947 93.6433 130.658L69.8833 111.899C69.4455 111.554 69.1866 111.091 69.1065 110.511C69.0265 109.932 69.1503 109.416 69.4779 108.965L78.817 96.1002C79.1447 95.6489 79.5869 95.3847 80.1436 95.3078C80.7003 95.2309 81.1976 95.3653 81.6353 95.7109L104.44 113.716C110.609 118.586 113.671 124.2 113.628 130.556C113.614 136.871 111.104 143.476 106.1 150.37Z" fill="#00688D"/>
<path d="M155.152 83.1738L166.723 75.7142C167.192 75.412 167.701 75.3254 168.248 75.4546C168.796 75.5838 169.212 75.8883 169.497 76.3681L175.353 86.2482C175.638 86.728 175.713 87.2523 175.579 87.8211C175.445 88.3898 175.143 88.8253 174.674 89.1275L134.143 115.257C133.674 115.559 133.166 115.645 132.618 115.516C132.07 115.387 131.654 115.083 131.37 114.603L125.513 104.723C125.229 104.243 125.154 103.719 125.288 103.15C125.422 102.581 125.724 102.145 126.192 101.843L137.891 94.3013L126.644 75.3263L114.945 82.8683C114.476 83.1705 113.968 83.257 113.42 83.1279C112.872 82.9987 112.456 82.6942 112.171 82.2144L106.315 72.3343C106.031 71.8545 105.955 71.3302 106.09 70.7614C106.224 70.1927 106.525 69.7572 106.994 69.4549L147.525 43.3259C147.994 43.0236 148.502 42.9371 149.05 43.0663C149.598 43.1954 150.014 43.4999 150.298 43.9798L156.155 53.8598C156.439 54.3397 156.514 54.864 156.38 55.4327C156.246 56.0015 155.945 56.437 155.476 56.7392L143.905 64.1988L155.152 83.1738Z" fill="#00688D"/>
<path d="M247.237 67.9032C247.49 68.164 247.647 68.469 247.71 68.8184C247.79 69.2677 247.688 69.7009 247.402 70.1181C247.157 70.4758 246.81 70.6982 246.362 70.7854L227.1 74.5355C225.955 74.7584 224.988 74.5335 224.198 73.8608L208.325 60.2924L211.059 75.5663C211.158 76.1154 211.043 76.6283 210.717 77.1052C210.39 77.582 209.953 77.8737 209.405 77.9803L194.025 80.9746C193.478 81.0812 192.969 80.9736 192.5 80.6518C192.03 80.33 191.746 79.8945 191.648 79.3455L182.989 30.9781C182.891 30.429 183.005 29.9161 183.332 29.4392C183.659 28.9624 184.096 28.6707 184.643 28.5641L200.023 25.5698C200.571 25.4633 201.08 25.5709 201.549 25.8927C202.019 26.2145 202.303 26.6499 202.401 27.1989L204.921 41.2749L214.064 24.1537C214.658 23.1598 215.503 22.5562 216.598 22.343L234.591 18.8401C235.039 18.7528 235.444 18.8549 235.805 19.1461C236.207 19.3778 236.448 19.7182 236.529 20.1675C236.6 20.5668 236.538 20.9404 236.343 21.2883L222.522 46.3712L247.237 67.9032Z" fill="#00688D"/>
<path d="M318.417 29.3551C318.964 29.4617 319.401 29.7534 319.728 30.2302C320.055 30.7071 320.169 31.22 320.071 31.7691L318.033 43.1496C317.935 43.6987 317.651 44.1341 317.181 44.4559C316.712 44.7777 316.203 44.8853 315.656 44.7787L286.314 39.0664L285.456 43.8582L309.945 48.6258C310.492 48.7324 310.93 49.0241 311.256 49.5009C311.583 49.9777 311.697 50.4907 311.599 51.0398L309.575 62.3455C309.477 62.8945 309.193 63.3299 308.723 63.6517C308.254 63.9735 307.745 64.0811 307.197 63.9745L282.709 59.207L280.055 74.0317C279.957 74.5807 279.673 75.0162 279.203 75.338C278.733 75.6598 278.225 75.7674 277.677 75.6608L261.551 72.5212C261.003 72.4146 260.566 72.1229 260.239 71.646C259.913 71.1692 259.798 70.6562 259.897 70.1072L268.555 21.7398C268.653 21.1907 268.937 20.7553 269.407 20.4335C269.876 20.1117 270.385 20.0041 270.933 20.1107L318.417 29.3551Z" fill="#00688D"/>
<path d="M380.454 99.1764C376.498 105.85 371.403 109.378 365.168 109.76C358.976 110.169 352.279 108.052 345.076 103.409C337.873 98.7656 333.042 93.4506 330.582 87.4638C328.165 81.5045 328.961 75.1442 332.968 68.383L337.545 60.6621C340.182 56.2128 343.39 53.1863 347.168 51.5825C351.015 49.9626 355.142 49.6087 359.549 50.5208C363.957 51.4328 368.441 53.3588 373.001 56.2987C377.561 59.2385 381.196 62.5466 383.906 66.2229C386.659 69.9267 388.213 73.9131 388.569 78.1819C388.925 82.4508 387.798 86.7881 385.186 91.1938L380.454 99.1764ZM349.415 80.8846C348.355 82.673 348.116 84.418 348.698 86.1195C349.322 87.8484 350.636 89.3586 352.639 90.6499C354.642 91.9413 356.503 92.478 358.223 92.2602C360.011 92.0263 361.435 91.015 362.495 89.2266L368.623 78.8885C369.683 77.1001 369.901 75.3414 369.277 73.6124C368.721 71.8673 367.441 70.3491 365.438 69.0577C363.435 67.7664 361.552 67.2159 359.79 67.4062C358.07 67.624 356.681 68.6272 355.62 70.4156L349.415 80.8846Z" fill="#00688D"/>
<path d="M413.128 172.93C413.028 173.137 412.879 173.32 412.68 173.477C412.322 173.76 411.899 173.868 411.412 173.8C410.995 173.743 410.652 173.529 410.384 173.16L400.24 159.187C399.823 158.613 399.575 157.969 399.496 157.257C399.447 156.586 399.567 155.975 399.856 155.424L407.744 140.675L403.991 135.504L392.29 144.742C391.852 145.088 391.355 145.222 390.798 145.145C390.241 145.069 389.799 144.804 389.471 144.353L379.82 131.058C379.492 130.606 379.368 130.091 379.448 129.511C379.528 128.931 379.787 128.469 380.225 128.123L418.79 97.6749C419.228 97.3292 419.725 97.1949 420.282 97.2718C420.839 97.3487 421.281 97.6128 421.608 98.0642L438.991 122.008C441.672 125.701 443.433 129.378 444.275 133.039C445.146 136.741 445.024 140.194 443.907 143.4C442.791 146.605 440.76 149.371 437.815 151.696C432.402 155.969 426.918 156.91 421.363 154.518L413.128 172.93ZM420.62 134.479C421.276 135.381 422.061 135.859 422.975 135.912C423.93 135.933 424.845 135.598 425.721 134.906C426.596 134.215 427.174 133.372 427.453 132.377C427.802 131.391 427.634 130.426 426.948 129.482L421.363 121.788L415.035 126.785L420.62 134.479Z" fill="#00688D"/>
<path d="M473.912 206.646C475.425 206.987 476.37 207.843 476.746 209.212L480.431 222.635C480.579 223.173 480.512 223.695 480.231 224.202C479.95 224.71 479.542 225.043 479.007 225.203L431.926 239.263C431.391 239.423 430.876 239.365 430.38 239.09C429.884 238.815 429.562 238.408 429.414 237.87L425.769 224.594C425.621 224.056 425.688 223.534 425.969 223.027C426.25 222.519 426.658 222.186 427.193 222.026L449.786 215.279L437.821 213.059C437.441 213.014 436.958 212.788 436.373 212.38C435.788 211.973 435.381 211.354 435.153 210.522L433.783 205.535C433.555 204.704 433.586 203.954 433.875 203.285C434.165 202.617 434.46 202.158 434.76 201.91L443.784 193.422L421.191 200.169C420.657 200.328 420.141 200.271 419.645 199.996C419.149 199.72 418.827 199.314 418.679 198.776L415.034 185.5C414.886 184.962 414.953 184.44 415.234 183.933C415.516 183.425 415.924 183.092 416.458 182.932L463.54 168.872C464.074 168.712 464.589 168.77 465.085 169.045C465.582 169.32 465.903 169.727 466.051 170.265L469.737 183.687C470.113 185.056 469.746 186.304 468.635 187.429L453.782 202.261L473.912 206.646Z" fill="#00688D"/>
<rect x="164.269" y="205.134" width="127.092" height="156.689" rx="4.35247" transform="rotate(-14.1589 164.269 205.134)" fill="#92B8C5" stroke="#92B8C5" stroke-width="1.74099" stroke-linejoin="round"/>
<rect x="190.325" y="179.419" width="127.092" height="156.689" rx="4.35247" transform="rotate(-8.34546 190.325 179.419)" fill="#92B8C5" stroke="#003D53" stroke-width="1.74099" stroke-linejoin="round"/>
<rect x="211.032" y="213.44" width="74.8625" height="5.22297" transform="rotate(-8.52251 211.032 213.44)" fill="#003D53" stroke="#92B8C5" stroke-width="1.74099"/>
<rect x="213.871" y="232.38" width="60.9346" height="5.22297" transform="rotate(-8.52251 213.871 232.38)" fill="#003D53" stroke="#92B8C5" stroke-width="1.74099"/>
<rect x="216.967" y="253.041" width="31.3378" height="5.22297" transform="rotate(-8.52251 216.967 253.041)" fill="#003D53" stroke="#92B8C5" stroke-width="1.74099"/>
<rect x="296.168" y="241.172" width="17.4099" height="5.22297" transform="rotate(-8.52251 296.168 241.172)" fill="#003D53" stroke="#92B8C5" stroke-width="1.74099"/>
<rect x="254.845" y="247.365" width="33.0788" height="5.22297" transform="rotate(-8.52251 254.845 247.365)" fill="#003D53" stroke="#92B8C5" stroke-width="1.74099"/>
<path d="M65.2458 302.534L59.0499 254.563M59.0499 254.563L33.0368 279.544M59.0499 254.563L90.6393 272.756" stroke="#00688D" stroke-width="18.2606"/>
<path d="M454.199 246.799C461.948 355.762 380.325 449.798 271.889 456.833C163.452 463.868 69.2655 381.238 61.5164 272.275" stroke="#00688D" stroke-width="18.3299"/>
</svg>
