<svg width="26" height="26" viewBox="0 0 26 26" fill="none" xmlns="http://www.w3.org/2000/svg">
<path d="M21.4257 17.5736L15.8988 23.2895C15.8254 23.3653 15.7383 23.4254 15.6425 23.4664C15.5466 23.5074 15.4439 23.5284 15.3402 23.5283H5.86549C5.44669 23.5283 5.04503 23.3563 4.74889 23.05C4.45275 22.7437 4.28638 22.3283 4.28638 21.8952V3.93108C4.28638 3.49796 4.45275 3.08257 4.74889 2.7763C5.04503 2.47004 5.44669 2.29798 5.86549 2.29798H20.0775C20.4963 2.29798 20.898 2.47004 21.1941 2.7763C21.4903 3.08257 21.6567 3.49796 21.6567 3.93108V16.9959C21.6567 17.1032 21.6364 17.2094 21.5968 17.3085C21.5571 17.4076 21.499 17.4977 21.4257 17.5736ZM16.1297 20.7408L18.9613 17.8125H16.1297V20.7408ZM20.0775 3.93108H5.86549V21.8952H14.5506V16.9959C14.5506 16.7793 14.6338 16.5717 14.7819 16.4185C14.93 16.2654 15.1308 16.1794 15.3402 16.1794H20.0775V3.93108Z" fill="#003D53"/>
<path fill-rule="evenodd" clip-rule="evenodd" d="M9.47917 13.4854C10.2206 14.1993 11.3125 14.8674 12.7881 14.8674C14.2638 14.8674 15.3557 14.1993 16.0971 13.4854C16.6165 12.9811 17.0464 12.3923 17.3686 11.744C17.4504 11.575 17.4504 11.3809 17.3686 11.2123C17.0466 10.5639 16.6168 9.97495 16.0976 9.47054C15.3557 8.75663 14.2638 8.08848 12.7881 8.08848C11.3125 8.08848 10.2206 8.75663 9.47917 9.47054C8.95981 9.9748 8.52987 10.5636 8.20769 11.2119C8.16741 11.2947 8.14648 11.3856 8.14648 11.4777C8.14648 11.5699 8.16741 11.6608 8.20769 11.7436C8.5297 12.392 8.95992 12.9809 9.47917 13.4854ZM12.7881 10.2069C13.1253 10.2069 13.4486 10.3408 13.6869 10.5792C13.9253 10.8176 14.0592 11.1408 14.0592 11.478C14.0592 11.8151 13.9253 12.1384 13.6869 12.3767C13.4486 12.6151 13.1253 12.749 12.7881 12.749C12.451 12.749 12.1277 12.6151 11.8894 12.3767C11.651 12.1384 11.5171 11.8151 11.5171 11.478C11.5171 11.1408 11.651 10.8176 11.8894 10.5792C12.1277 10.3408 12.451 10.2069 12.7881 10.2069Z" fill="#003D53"/>
</svg>
